<svg width="35" height="38" viewBox="0 0 35 38" fill="none" xmlns="http://www.w3.org/2000/svg">
<path d="M13 31.6667C4.66665 34.1667 4.66665 27.5 1.33331 26.6667M24.6666 36.6667V30.2167C24.7292 29.4219 24.6218 28.623 24.3517 27.873C24.0815 27.123 23.6549 26.439 23.1 25.8667C28.3333 25.2833 33.8333 23.3 33.8333 14.2C33.8329 11.873 32.9378 9.63533 31.3333 7.95C32.0931 5.91418 32.0394 3.66391 31.1833 1.66666C31.1833 1.66666 29.2166 1.08333 24.6666 4.13333C20.8467 3.09803 16.82 3.09803 13 4.13333C8.44998 1.08333 6.48331 1.66666 6.48331 1.66666C5.62727 3.66391 5.57355 5.91418 6.33331 7.95C4.71686 9.64783 3.82085 11.9058 3.83331 14.25C3.83331 23.2833 9.33331 25.2667 14.5666 25.9167C14.0183 26.4833 13.5954 27.159 13.3255 27.8999C13.0556 28.6407 12.9447 29.4301 13 30.2167V36.6667" stroke="#808080" stroke-width="2" stroke-linecap="round" stroke-linejoin="round"/>
</svg>
